<svg xmlns="http://www.w3.org/2000/svg" width="785" height="191" fill="none"><path fill="#CCC" fill-rule="evenodd" d="M525.424 115.816c-2.795 2.679-1.994 2.366-8.497.406-5.703-1.856-2.998-2.471-8.104.51-4.598 2.784-12.104 5.556-15.598 7.713 1.307 2.981 12.499 12.759 15.204 16.772-1.003.511-1.804.928-2.897 1.439-1.702.823-1.296.823-3.302-.406-4.395-2.575-18.506-10.811-21.301-12.04-3.696 1.647-13.502 6.797-16.894 6.588-1.6-.104-4.204-.51-3.697-2.575 1.296-5.045 10.099-7.818 15.801-10.393 2.299-1.032 1.702-.927 2.198-3.502.609-2.773 4.407-22.943 5.297-23.975.395-.314 3.494-1.647 4.102-1.96.305 1.855.496 3.908.598 5.868l1.003 11.425c0 1.856.304 4.014.597 5.765 2.604-1.334 5.196-2.471 7.901-3.804 13.4-6.589 11-2.158 14.099-9.57 1.803-4.117 1.803-6.588 5.703-5.973-.71 8.247 1.487 13.385 7.787 17.712ZM411.628 36.061c3.607 1.137 2.795 1.241 7.799-3.503 4.395-4.117 1.702-3.503 7.596-2.98 5.196.405 13.198-.314 17.3.104.102 3.19-5.996 16.98-6.796 21.817h3.201c1.905 0 1.499.21 2.896-1.751 2.897-4.326 12.105-18.013 14.201-20.275 4.102-.104 15.001.104 17.999-1.438 1.397-.824 3.595-2.47 2.299-4.118-3.302-3.909-12.397-2.575-18.596-2.366-2.502 0-1.894-.104-3.505-2.157C454.32 17.131 442.52.556 441.325.046c-.496-.104-3.899 0-4.497 0 .406 1.856 1.105 3.7 1.804 5.556l3.899 10.799c.699 1.647 1.398 3.804 1.905 5.451-2.897-.104-5.804 0-8.802 0-14.798 0-10.696 2.981-16.703-2.366-3.291-2.98-4.294-5.15-7.596-2.876 4.001 7.11 4.193 12.759.293 19.451Zm-1.6-10.497c1.499-.209 2.006 2.157.293 2.47l-2.401.314c-1.499.313-2.107-2.158-.406-2.47l2.514-.314ZM197.65 190.223c-.8 1.647-2.998.406-2.299-1.032l.597-1.334c.8-1.543 2.998-.313 2.198 1.136l-.496 1.23Zm3.798-8.131c-.8 1.543-2.998.418-2.198-1.137l1.105-2.262c.698-1.542 2.896-.313 2.197 1.126l-1.104 2.273Zm4.497-9.059c-.699 1.438-2.998.406-2.198-1.136l1.195-2.262c.698-1.439 2.896-.406 2.197 1.241l-1.194 2.157Zm4.801-8.85c-.902 1.543-2.998.105-2.198-1.241l1.296-2.262c.902-1.542 2.897-.104 2.097 1.23l-1.195 2.273Zm5.004-8.745c-.902 1.438-2.998.104-2.096-1.334l1.296-2.158c.8-1.438 2.998-.104 2.096 1.334l-1.296 2.158Zm5.297-8.642c-.8 1.334-2.998.105-2.096-1.333l1.397-2.158c.8-1.334 2.998-.104 1.995 1.438l-1.296 2.053Zm5.5-8.339c-1.003 1.334-2.897-.209-1.995-1.543l1.398-2.053c1.003-1.334 2.997.209 1.994 1.543l-1.397 2.053Zm5.793-8.236c-1.003 1.334-2.897-.208-1.905-1.542l1.499-2.053c1.003-1.334 2.897.313 1.894 1.542l-1.488 2.053Zm5.804-7.713c-.902.511-1.995-.313-1.905-1.334-.101-.614.395-1.438 1.105-1.542l.8-1.033c1.003-1.229 2.998.313 1.905 1.647l-.203.314.394.104c1.601.615.598 2.981-.901 2.366l-1.195-.522Zm6.706-8.026c-1.206 1.241-2.897-.511-1.803-1.752l1.6-1.856c1.195-1.333 2.896.511 1.803 1.647l-1.6 1.961Zm6.694-7.516c-1.104 1.229-2.997-.511-1.803-1.752l1.702-1.856c1.105-1.229 2.896.511 1.803 1.752l-1.702 1.856Zm6.898-7.203c-1.296 1.136-2.897-.824-1.702-1.856l1.702-1.752c1.296-1.24 2.896.72 1.803 1.856l-1.803 1.752Zm7.202-6.995c-1.206 1.137-2.897-.719-1.702-1.855l1.904-1.752c1.195-1.136 2.897.824 1.601 1.96l-1.803 1.647Zm7.393-6.588c-1.105 1.033-2.795-.823-1.499-1.948l1.905-1.647c1.397-1.137 2.795 1.032 1.499 1.96l-1.905 1.635Zm7.799-6.38c-1.398 1.033-2.795-1.031-1.499-1.96l1.905-1.542c1.397-1.032 2.795 1.032 1.499 1.96l-1.905 1.543Zm7.901-5.973c-1.195.928-2.796-1.032-1.398-2.053.699-.51 1.398-1.032 2.096-1.438 1.195-.928 2.795 1.032 1.398 2.053-.688.51-1.386.928-2.096 1.438Zm8.204-5.66c-1.397.928-2.603-1.334-1.296-2.157l2.096-1.334c1.398-.928 2.705 1.334 1.297 2.157l-2.097 1.334Zm8.397-5.243c-1.296.824-2.694-1.334-1.195-2.261l2.198-1.23c1.296-.824 2.693 1.334 1.194 2.262l-2.197 1.23Zm8.7-4.94c-1.6.823-2.603-1.544-1.206-2.263l2.198-1.23c1.499-.718 2.604 1.648 1.206 2.367l-2.198 1.125Zm8.803-4.524c-1.398.719-2.604-1.543-1.105-2.367.8-.313 1.499-.719 2.299-1.032 1.398-.719 2.502 1.543 1.003 2.262-.699.406-1.499.719-2.197 1.137Zm8.993-4.222c-1.6.614-2.4-1.752-1.003-2.367l2.299-1.032c1.601-.615 2.401 1.844.902 2.366l-2.198 1.033Zm9.107-3.816c-1.499.614-2.401-1.752-.902-2.367l2.401-.928c1.397-.614 2.4 1.752.8 2.367l-2.299.928Zm9.298-3.492c-1.499.51-2.401-1.856-.801-2.366.801-.313 1.601-.615 2.401-.824 1.398-.614 2.299 1.752.699 2.367-.8.301-1.499.51-2.299.823Zm9.399-3.085c-1.702.406-2.198-2.053-.699-2.47l2.401-.72c1.6-.406 2.198 2.053.597 2.47l-2.299.72Zm9.501-2.784c-1.6.418-2.198-2.053-.597-2.47l2.4-.615c1.499-.406 2.198 2.053.598 2.47l-2.401.615Zm9.591-2.366c-1.499.406-2.299-2.053-.597-2.575l2.502-.51c1.701-.313 2.006 2.261.496 2.47l-2.401.615Zm9.602-2.157c-1.6.313-1.995-2.158-.394-2.471l2.4-.406c1.702-.313 2.097 2.157.496 2.47l-2.502.407Zm9.794-1.752c-1.6.313-2.096-2.157-.394-2.47l2.4-.406c1.601-.314 2.097 2.261.395 2.575l-2.401.301Zm-332.97 99.612c-2.806 2.679-1.995 2.366-8.498.313-5.703-1.751-2.998-2.47-8.103.615-4.599 2.679-12.105 5.556-15.598 7.713 1.296 2.981 12.498 12.759 15.203 16.772-1.003.511-1.803.824-2.896 1.334-1.702.928-1.296.928-3.302-.313-4.396-2.575-18.495-10.915-21.301-12.04-3.697 1.647-13.502 6.797-16.894 6.588-1.6-.104-4.204-.614-3.697-2.679 1.296-5.045 10.098-7.818 15.8-10.393 2.3-1.032 1.703-.823 2.199-3.398.597-2.877 4.406-22.943 5.297-23.975.304-.313 3.494-1.752 4.102-1.96.304 1.856.507 3.804.597 5.764l1.003 11.53c0 1.751.305 4.013.598 5.66a470.524 470.524 0 0 1 7.9-3.7c13.4-6.588 10.899-2.157 14.1-9.569 1.803-4.118 1.701-6.588 5.702-5.974-.71 8.247 1.488 13.397 7.788 17.712Zm-2.897-10.184c-1.498.51-.901 2.877.8 2.471l2.3-.824c1.397-.417.901-2.876-.8-2.47l-2.3.823Zm260.48 55.362c1.296 1.137 2.694-.928 1.499-1.949l-1.003-.823c-1.398-1.137-2.795.928-1.6 1.96l1.104.812Zm-6.897-5.66c1.296 1.032 2.795-.928 1.6-1.961l-1.995-1.647c-1.296-1.032-2.795 1.033-1.499 2.053l1.894 1.555Zm-7.799-6.171c1.194 1.032 2.795-.928 1.499-2.053l-1.995-1.543c-1.296-.928-2.897 1.033-1.499 2.065l1.995 1.531Zm-8.002-5.974c1.397 1.033 2.704-1.229 1.397-2.053l-2.096-1.438c-1.398-1.032-2.705 1.241-1.398 2.053l2.097 1.438Zm-8.205-5.66c1.397.928 2.705-1.229 1.397-2.157l-2.096-1.334c-1.397-.928-2.795 1.137-1.397 2.065l2.096 1.426Zm-8.295-5.451c1.296.823 2.693-1.23 1.195-2.158l-2.097-1.334c-1.296-.823-2.693 1.23-1.296 2.158l2.198 1.334Zm-8.599-5.15c1.6.823 2.603-1.439 1.296-2.262l-2.198-1.23c-1.499-.823-2.603 1.439-1.195 2.262l2.097 1.23Zm-8.6-4.837c1.499.719 2.502-1.543 1.105-2.262l-2.198-1.241c-1.499-.719-2.603 1.543-1.104 2.262l2.197 1.241Zm-8.903-4.524c1.499.72 2.603-1.542 1.093-2.366l-2.198-1.032c-1.397-.719-2.603 1.438-1.104 2.262l2.209 1.136Zm-8.892-4.222c1.6.615 2.4-1.751.901-2.366l-2.299-1.032c-1.499-.615-2.401 1.751-.902 2.366l2.3 1.032Zm-18.405-7.411c1.702.51 2.198-1.961.8-2.367l-2.4-.823c-1.702-.51-2.198 1.96-.8 2.366l2.4.824Zm-9.399-3.086c1.499.511 2.197-1.96.698-2.47l-2.4-.719c-1.601-.418-2.299 2.053-.699 2.47l2.401.719Zm-9.501-2.667c1.397.406 2.299-1.949.597-2.471l-2.4-.615c-1.804-.406-2.097 2.158-.598 2.471l2.401.615Zm-9.591-2.367c1.6.314 1.995-2.157.496-2.47l-2.502-.511c-1.601-.313-2.097 2.158-.508 2.471l2.514.51Zm-9.704-1.855c1.499.313 2.096-2.158.395-2.575-.801-.105-1.702-.314-2.503-.406-1.498-.314-2.096 2.157-.394 2.575.8.092 1.702.197 2.502.406Zm-9.794-1.543c1.702.209 1.905-2.366.304-2.471l-2.4-.313c-1.702-.209-1.905 2.366-.304 2.471l2.4.313Zm-9.805-1.032c1.6.104 1.905-2.367.203-2.575l-2.502-.209c-1.499-.209-1.894 2.366-.102 2.575l2.401.209Zm-9.794-.72c1.702.105 1.6-2.47.102-2.47l-2.503-.105c-1.701-.104-1.701 2.471-.101 2.471l2.502.104Zm-9.907-.208c1.601 0 1.702-2.575 0-2.575h-2.502c-1.499 0-1.701 2.575 0 2.575h2.502Zm-9.895.208c1.803-.208 1.499-2.679-.101-2.575l-2.401.105c-1.702.104-1.499 2.679.102 2.575l2.4-.105Zm-9.794.511c1.601-.105 1.398-2.68-.203-2.575l-2.502.209c-1.6.104-1.397 2.679.203 2.575l2.502-.209Zm-9.805.928c1.499-.105 1.398-2.68-.304-2.471-.8.105-1.702.209-2.502.313-1.499.105-1.398 2.68.304 2.471.8-.105 1.6-.209 2.502-.313Zm-9.794 1.334c1.702-.314 1.105-2.773-.394-2.471l-2.514.313c-1.6.418-1.104 2.888.395 2.575l2.513-.417Zm-9.805 1.751c1.6-.313 1.206-2.877-.394-2.575l-2.503.51c-1.498.314-1.104 2.784.496 2.471l2.401-.406Zm-9.602 1.96c1.499-.209 1.104-2.772-.598-2.47l-2.4.614c-1.702.418-.902 2.877.597 2.471l2.4-.615Zm-9.591 2.471c1.6-.511.901-2.981-.7-2.471l-2.4.615c-1.6.406-.901 2.877.699 2.471l2.4-.615Zm-9.603 2.679c1.6-.406 1.003-2.981-.698-2.47l-2.3.719c-1.499.406-1.003 2.876.7 2.47l2.298-.719Zm447.759-12.248c-1.499.51-.902 2.876.8 2.47l2.299-.823c1.397-.418 1.003-2.877-.8-2.366l-2.299.719Zm260.479 55.466c1.296 1.032 2.795-1.032 1.499-1.96l-1.003-.928c-1.397-1.137-2.795 1.032-1.6 1.96l1.104.928Zm-6.897-5.66c1.307 1.032 2.795-1.033 1.6-2.053l-2.006-1.543c-1.296-1.032-2.806.928-1.499 1.96l1.905 1.636Zm-7.799-6.275c1.194 1.032 2.795-.928 1.499-1.961l-1.995-1.542c-1.296-1.033-2.897.928-1.499 2.053l1.995 1.45Zm-8.002-5.869c1.397.927 2.705-1.23 1.397-2.158l-1.995-1.438c-1.499-.928-2.806 1.241-1.397 2.157l1.995 1.439Zm-8.194-5.765c1.398.928 2.694-1.23 1.398-2.158l-2.096-1.333c-1.398-.928-2.705 1.241-1.398 2.157l2.096 1.334Zm-8.306-5.452c1.307.928 2.705-1.136 1.307-2.157l-2.197-1.334c-1.195-.824-2.694 1.23-1.195 2.262l2.085 1.229Zm-8.498-5.15c1.499.824 2.502-1.438 1.206-2.157l-2.198-1.334c-1.499-.719-2.603 1.543-1.194 2.262l2.186 1.229Zm-8.689-4.836c1.499.719 2.603-1.439 1.093-2.262l-2.198-1.137c-1.499-.823-2.502 1.543-1.104 2.262l2.209 1.137Zm-8.904-4.524c1.499.719 2.604-1.543 1.105-2.262l-2.198-1.136c-1.398-.72-2.592 1.542-1.104 2.261l2.197 1.137Zm-8.903-4.222c1.6.615 2.4-1.751.901-2.366l-2.197-1.032c-1.601-.615-2.502 1.855-1.003 2.366l2.299 1.032Zm-9.197-3.804c1.499.614 2.491-1.752.902-2.471l-2.299-.824c-1.499-.614-2.401 1.752-.902 2.367l2.299.928Zm-9.196-3.503c1.701.51 2.197-2.053.8-2.471l-2.401-.823c-1.702-.511-2.198 1.96-.8 2.47l2.401.824Zm-9.4-3.19c1.601.51 2.198-1.949.699-2.366l-2.401-.72c-1.6-.51-2.299 1.961-.699 2.367l2.401.719Zm-9.501-2.668c1.398.406 2.299-1.96.597-2.47l-2.4-.615c-1.803-.406-2.108 2.157-.597 2.47l2.4.615Zm-9.602-2.273c1.6.313 1.995-2.262.496-2.575l-2.502-.51c-1.601-.314-2.006 2.157-.395 2.47l2.401.615Zm-9.693-1.949c1.499.313 2.108-2.157.395-2.47-.8-.21-1.6-.314-2.502-.51-1.398-.21-2.096 2.261-.395 2.574.902.093 1.702.302 2.502.406Zm-9.805-1.543c1.702.21 1.905-2.261.305-2.47l-2.401-.313c-1.702-.209-1.905 2.366-.304 2.47l2.4.313Zm-9.794-1.032c1.601.209 1.894-2.366.203-2.575l-2.502-.209c-1.499-.104-1.904 2.367-.101 2.575l2.4.21Zm-9.805-.615c1.702 0 1.601-2.575.102-2.575l-2.502-.104c-1.702 0-1.702 2.47-.102 2.575l2.502.104Zm-9.895-.313c1.6 0 1.702-2.47 0-2.575h-2.502c-1.499 0-1.702 2.575 0 2.575h2.502Zm-9.895.21c1.803-.105 1.498-2.68-.102-2.576l-2.401.105c-1.701.104-1.498 2.679.102 2.574l2.401-.104Zm-9.806.51c1.601-.105 1.499-2.68-.203-2.471l-2.502.209c-1.6.104-1.397 2.575.203 2.47l2.502-.209Zm-9.794 1.032c1.499-.21 1.398-2.784-.304-2.575-.8.104-1.702.209-2.502.313-1.499.104-1.397 2.68.304 2.47.801-.104 1.601-.208 2.502-.208Zm-9.805 1.23c1.702-.314 1.093-2.773-.394-2.471l-2.502.406c-1.601.313-1.105 2.783.394 2.47l2.502-.406Zm-9.805 1.75c1.6-.313 1.206-2.772-.394-2.47l-2.491.406c-1.499.313-1.105 2.877.496 2.575l2.389-.51Zm-9.591 2.065c1.499-.313 1.105-2.876-.597-2.47l-2.401.51c-1.702.51-.902 2.888.597 2.47l2.401-.51Zm-9.602 2.366c1.6-.51.901-2.876-.598-2.47l-2.502.615c-1.6.51-.901 2.876.699 2.47l2.401-.615Zm-9.501 2.668c1.499-.406.901-2.876-.699-2.47l-2.4.719c-1.499.406-1.004 2.981.698 2.47l2.401-.719Z" clip-rule="evenodd" opacity=".3"/></svg>