<svg xmlns="http://www.w3.org/2000/svg" width="19" height="19" fill="none"><path fill="#666" d="M1.641 4.96c.153-.194.355-.458.516-.646.484-.52.547-.588.987-.972.13-.1.286-.223.437-.338-1.117.895-1.26 1.885-.234 2.497-.002 0-.002 0-.002.002 1.434.817 4.575.64 7.054-.406 2.401-1.014 3.288-2.463 2.103-3.324-1.04-.185-2.281-.206-3.593-.04l-.137-.213.113-.353c.772-.066 1.505-.05 2.138.052.153.025.355.067.505.097.291.067.45.107.64.165.194.055.36.11.648.21.283.106.405.154.632.26.254.11.5.234.739.372 1.888 1.123.714 3.173-2.618 4.577-3.322 1.4-7.556 1.62-9.453.51-.001-.002-.004-.003-.009-.005h.004c-1.036-.62-1.145-1.521-.47-2.444Zm8.644 7.854-.026-1.262-.949-.997c-3.132.67-6.211.527-7.923-.427-.006-.007-.02-.013-.026-.02C.39 9.545.152 8.817.225 8.025-.002 9.183-.02 9.601.013 10.592c.04.62.419 1.193 1.181 1.644l.006.006c1.825 1.074 5.628 1.307 9.085.572Zm3.955 1.445c-4.422 1.677-9.955 1.776-12.359.224.26.6.613 1.16 1.048 1.66 2.206 1.426 7.285 1.335 11.342-.205 2.374-.9 3.872-2.098 4.265-3.22l.11-.339c.263-.856.312-1.57.354-2.204-.048 1.378-1.764 2.945-4.76 4.084Zm-9.76 3.23c.139.126.576.633 2.79 1.194.598.125 2.104.526 4.887-.058l.016-.24-.22-.326c-2.581.578-5.45.385-7.473-.57Zm6.389-9.982 2.35 1.686s.504.343.029.583c-.473.239-1.687.822-1.687.822l-1.2-.424-.601.254 1.061.871.008 1.357.624-.263.413-1.145s1.27-.462 1.774-.636c.506-.17.438.412.438.412l-.25 2.78.83-.349 1.364-3.75s.723-.332 1.231-.625c.508-.292.683-.776.683-.776s-.496-.202-1.067-.04c-.57.16-1.314.447-1.314.447l-3.86-1.55-.826.346ZM5.895 2.175l1.596 1.202.436-.061-.869-1.08s-.189-.223.066-.276c.256-.054.903-.179.903-.179l.488.368.328-.046-.372-.558.196-.62-.317.043-.376.472s-.66.059-.919.08c-.261.018-.149-.247-.149-.247L7.406 0l-.438.061-1.155 1.59s-.385.067-.664.142c-.28.075-.426.279-.426.279s.205.157.493.151c.292-.006.68-.048.68-.048Zm7.888 15.451-1.033-.51-.238.078.612.518s.13.105-.007.162c-.137.055-.487.191-.487.191l-.288-.122-.172.059.24.242-.023.354.179-.059.134-.287s.363-.102.508-.139c.144-.037.111.123.111.123l-.136.764.238-.078.468-1.01s.207-.077.355-.148c.148-.07.207-.2.207-.2s-.132-.068-.294-.034a4.73 4.73 0 0 0-.374.096Z"/></svg>