<svg xmlns="http://www.w3.org/2000/svg" width="104" height="40" fill="none"><circle cx="84" cy="20" r="20" fill="#FA7436"/><path fill="#fff" d="M92.707 20.707a1 1 0 0 0 0-1.414l-6.364-6.364a1 1 0 0 0-1.414 1.414L90.586 20l-5.657 5.657a1 1 0 0 0 1.414 1.414l6.364-6.364ZM76 21h16v-2H76v2Z"/><circle cx="20" cy="20" r="20" fill="#FEFCFB" transform="matrix(-1 0 0 1 40 0)"/><circle cx="20" cy="20" r="19.5" stroke="#999" stroke-opacity=".5" transform="matrix(-1 0 0 1 40 0)"/><path fill="#999" fill-opacity=".5" d="M11.293 19.293a1 1 0 0 0 0 1.414l6.364 6.364a1 1 0 0 0 1.414-1.414L13.414 20l5.657-5.657a1 1 0 0 0-1.414-1.414l-6.364 6.364ZM28 19H12v2h16v-2Z"/></svg>